<svg width="107" height="36" viewBox="0 0 107 36" fill="none" xmlns="http://www.w3.org/2000/svg">
<g clip-path="url(#clip0_132_529)">
<path d="M6.84004 0.325439H95.0056C96.0219 0.325439 96.9183 0.748501 97.4264 1.56429L106.363 16.2188C107.05 17.367 106.93 18.7567 105.944 19.905L93.3619 34.5594C92.6744 35.3449 91.7778 35.8284 90.7617 35.8284H2.86163C1.09834 35.8284 -0.186797 34.4384 0.0223078 32.686L3.34328 3.46787C3.55238 1.68519 5.07675 0.325439 6.84004 0.325439Z" fill="#25E8FF"/>
<path d="M52.2659 10.2223L47.6906 20.7519L45.3126 10.2223H40.6168L44.8009 25.469L42.3627 30.4599H46.9982L56.8416 10.2223H52.2659ZM7.95679 30.4599H12.1709L12.8632 24.708C13.5254 25.2255 14.7596 25.8038 16.3248 25.8038C21.2013 25.8038 24.1812 21.4519 24.1812 16.7044C24.1812 12.657 22.2849 9.8266 18.733 9.8266C17.0472 9.8266 15.5122 10.3745 14.3382 11.3482L14.4887 10.2223H10.3949L7.95667 30.4599L7.95679 30.4599ZM13.2245 21.7259L14.1578 14.2395C15.0608 13.509 16.084 13.2048 16.9872 13.2351C18.7932 13.2656 19.7866 14.7263 19.7866 17.0087C19.7866 19.9606 18.2515 22.4866 15.6628 22.4866C14.85 22.4866 13.917 22.2126 13.2246 21.7259H13.2245ZM24.9941 21.3302C24.9639 23.7953 26.9508 25.8039 29.9911 25.8039C32.1283 25.8039 33.6936 24.8909 34.5966 23.8866L34.4158 25.4386H38.5097L39.503 17.1915C39.9847 13.1136 38.6602 9.79639 33.4828 9.79639C31.3755 9.79639 28.817 10.2832 27.4322 11.1962L27.0108 14.6046C28.1246 13.996 30.2919 13.2528 32.2786 13.2528C34.6566 13.2528 35.4996 14.4526 35.4091 15.7305H32.8807C29.2084 15.7305 25.0242 17.161 24.9941 21.3302L24.9941 21.3302ZM29.2384 20.9955C29.2384 19.3522 31.1347 18.7435 33.0914 18.7435H35.078L34.777 21.2085C33.9343 21.878 32.4291 22.5779 31.1648 22.5779C30.0209 22.5779 29.2383 21.9389 29.2383 20.9955H29.2384ZM80.9168 18.4695C80.8567 22.2737 83.5958 25.8039 89.1949 25.8039C91.1816 25.8039 92.8672 25.4082 94.3723 24.4649L94.6733 20.8737C93.4392 21.6347 91.5728 22.1519 89.9474 22.1519C87.8101 22.1519 85.8836 21.2084 85.3419 19.0174H95.7569C95.9074 18.6217 96.0279 17.6782 96.0279 16.7652C96.0279 12.7483 93.8304 9.82666 89.3153 9.82666C84.8001 9.82666 80.9772 12.5353 80.9169 18.4695H80.9168ZM85.372 16.4305C85.7934 14.422 87.2382 13.2351 89.0142 13.2351C90.7602 13.2351 91.7535 14.2395 91.7535 15.8523C91.7535 16.035 91.7535 16.248 91.7233 16.4305H85.372ZM60.2729 25.4386L61.6577 14.3003C62.5909 13.6613 63.6443 13.1439 64.5474 13.1439C65.7214 13.1439 66.2934 14.0266 66.1126 15.5481L64.9086 25.4387H69.1529L70.4773 14.6351L70.5075 14.3308C71.4408 13.6916 72.5243 13.1439 73.4273 13.1439C74.6013 13.1439 75.1733 14.0266 74.9926 15.5481L73.7886 25.4387H78.0329L79.3573 14.6351C79.7185 11.6223 78.1834 9.79639 75.4441 9.79639C73.5478 9.79639 71.531 10.8919 70.1764 11.8962C69.6044 10.5572 68.3401 9.79639 66.5642 9.79639C64.8785 9.79639 63.0724 10.679 61.7178 11.5919L61.8985 10.2225H57.9251L56.0287 25.4387H60.273L60.2729 25.4386Z" fill="black"/>
</g>
<defs>
<clipPath id="clip0_132_529">
<rect width="107" height="36" fill="white"/>
</clipPath>
</defs>
</svg>
